<svg version="1.1" id="Layer_1" xmlns="http://www.w3.org/2000/svg" xmlns:xlink="http://www.w3.org/1999/xlink" x="0px" y="0px"
	 width="100%" viewBox="0 0 301 300" enable-background="new 0 0 301 300" xml:space="preserve">
<path fill="#000000" opacity="1.000000" stroke="none" 
	d="
M168.000000,301.000000 
	C112.000008,301.000000 56.500019,301.000000 1.000022,301.000000 
	C1.000015,201.000031 1.000015,101.000053 1.000007,1.000063 
	C101.333290,1.000042 201.666580,1.000042 301.999908,1.000021 
	C301.999939,100.999939 301.999939,200.999878 301.999969,300.999908 
	C257.500000,301.000000 213.000000,301.000000 168.000000,301.000000 
M168.500000,282.999298 
	C206.582794,282.999298 244.665573,282.999298 282.692902,282.999298 
	C282.692902,194.674164 282.692902,106.964577 282.692902,19.309139 
	C195.008377,19.309139 107.632164,19.309139 20.308125,19.309139 
	C20.308125,107.327309 20.308125,195.036743 20.308125,282.999298 
	C69.577126,282.999298 118.538567,282.999298 168.500000,282.999298 
z"/>
<path fill="#F5DE19" opacity="1.000000" stroke="none" 
	d="
M168.000000,282.999298 
	C118.538567,282.999298 69.577126,282.999298 20.308125,282.999298 
	C20.308125,195.036743 20.308125,107.327309 20.308125,19.309139 
	C107.632164,19.309139 195.008377,19.309139 282.692902,19.309139 
	C282.692902,106.964577 282.692902,194.674164 282.692902,282.999298 
	C244.665573,282.999298 206.582794,282.999298 168.000000,282.999298 
M258.719452,209.924591 
	C253.051895,199.935669 243.476791,194.920517 233.640823,190.250809 
	C227.195770,187.190948 220.542114,184.512009 214.327209,181.043655 
	C209.007187,178.074707 207.301376,172.502029 209.148270,167.338867 
	C210.930649,162.356033 216.071228,159.744522 222.160904,160.426086 
	C228.868942,161.176849 233.128998,165.300613 236.480331,170.738098 
	C242.936859,166.590836 249.074738,162.648254 255.171890,158.731827 
	C242.762985,132.425049 204.897263,134.634186 191.983841,150.330521 
	C191.034790,151.484131 190.057083,152.630066 189.246552,153.879379 
	C178.600647,170.288864 184.389771,192.391342 202.536240,202.838165 
	C209.989594,207.129028 218.162064,210.154953 225.891754,213.989426 
	C228.981003,215.521912 232.138718,217.285629 234.599930,219.639725 
	C240.083527,224.884659 239.140549,233.740417 232.253479,236.795639 
	C227.643265,238.840820 221.974335,239.690048 216.921509,239.287491 
	C207.727493,238.554993 201.204102,232.825745 196.677200,224.899170 
	C189.905777,228.859802 183.466858,232.625961 176.788422,236.532211 
	C177.896896,238.324432 178.751297,239.938904 179.819229,241.396988 
	C192.346970,258.501984 209.430389,263.767212 229.889572,261.200592 
	C256.678162,257.839966 269.879944,235.195251 258.719452,209.924591 
M160.460159,241.798889 
	C161.383194,237.429230 163.058258,233.068024 163.107422,228.688553 
	C163.430786,199.877899 163.407104,171.063309 163.468277,142.249954 
	C163.469589,141.628860 163.132950,141.007065 162.992020,140.517731 
	C154.894547,140.517731 146.984924,140.517731 138.823532,140.517731 
	C138.823532,142.702225 138.823547,144.525879 138.823547,146.349533 
	C138.823547,171.835297 138.850250,197.321106 138.785629,222.806717 
	C138.778519,225.613327 138.487244,228.469330 137.905197,231.212784 
	C137.002319,235.468536 134.384857,238.243362 129.965759,239.176559 
	C123.309242,240.582245 117.778412,238.934921 113.691154,233.319901 
	C112.241882,231.328949 110.932327,229.236282 109.475662,227.065887 
	C102.800613,231.139618 96.308929,235.101440 89.880234,239.024826 
	C95.137283,251.811050 107.011955,260.461823 121.884903,261.566376 
	C138.964157,262.834778 154.038269,257.455719 160.460159,241.798889 
z"/>
<path fill="#030300" opacity="1.000000" stroke="none" 
	d="
M258.879333,210.264069 
	C269.879944,235.195251 256.678162,257.839966 229.889572,261.200592 
	C209.430389,263.767212 192.346970,258.501984 179.819229,241.396988 
	C178.751297,239.938904 177.896896,238.324432 176.788422,236.532211 
	C183.466858,232.625961 189.905777,228.859802 196.677200,224.899170 
	C201.204102,232.825745 207.727493,238.554993 216.921509,239.287491 
	C221.974335,239.690048 227.643265,238.840820 232.253479,236.795639 
	C239.140549,233.740417 240.083527,224.884659 234.599930,219.639725 
	C232.138718,217.285629 228.981003,215.521912 225.891754,213.989426 
	C218.162064,210.154953 209.989594,207.129028 202.536240,202.838165 
	C184.389771,192.391342 178.600647,170.288864 189.246552,153.879379 
	C190.057083,152.630066 191.034790,151.484131 191.983841,150.330521 
	C204.897263,134.634186 242.762985,132.425049 255.171890,158.731827 
	C249.074738,162.648254 242.936859,166.590836 236.480331,170.738098 
	C233.128998,165.300613 228.868942,161.176849 222.160904,160.426086 
	C216.071228,159.744522 210.930649,162.356033 209.148270,167.338867 
	C207.301376,172.502029 209.007187,178.074707 214.327209,181.043655 
	C220.542114,184.512009 227.195770,187.190948 233.640823,190.250809 
	C243.476791,194.920517 253.051895,199.935669 258.879333,210.264069 
z"/>
<path fill="#050400" opacity="1.000000" stroke="none" 
	d="
M160.285339,242.144440 
	C154.038269,257.455719 138.964157,262.834778 121.884903,261.566376 
	C107.011955,260.461823 95.137283,251.811050 89.880234,239.024826 
	C96.308929,235.101440 102.800613,231.139618 109.475662,227.065887 
	C110.932327,229.236282 112.241882,231.328949 113.691154,233.319901 
	C117.778412,238.934921 123.309242,240.582245 129.965759,239.176559 
	C134.384857,238.243362 137.002319,235.468536 137.905197,231.212784 
	C138.487244,228.469330 138.778519,225.613327 138.785629,222.806717 
	C138.850250,197.321106 138.823547,171.835297 138.823547,146.349533 
	C138.823547,144.525879 138.823532,142.702225 138.823532,140.517731 
	C146.984924,140.517731 154.894547,140.517731 162.992020,140.517731 
	C163.132950,141.007065 163.469589,141.628860 163.468277,142.249954 
	C163.407104,171.063309 163.430786,199.877899 163.107422,228.688553 
	C163.058258,233.068024 161.383194,237.429230 160.285339,242.144440 
z"/>
</svg>