<svg xmlns="http://www.w3.org/2000/svg" xmlns:xlink="http://www.w3.org/1999/xlink" width="449" height="502" xml:space="preserve" version="1.1" viewBox="0 0 449 502">
    <path fill="#fbd24d" stroke="none" fill-rule="evenodd" d="M 157.241 31.995 C 153.282 34.408, 150.009 39.513, 150.004 43.282 C 149.993 51.191, 156.165 57.385, 164.056 57.385 C 179.018 57.385, 183.218 38.386, 169.800 31.405 C 166.007 29.432, 161.064 29.664, 157.241 31.995 M 290.741 85.592 C 290.334 86, 290 95.171, 290 105.972 C 290 123.286, 289.751 126.349, 287.899 131.833 C 283.883 143.724, 274.494 153.602, 261.358 159.756 L 255.500 162.500 208.500 163.035 C 162.739 163.556, 161.351 163.629, 155.847 165.820 C 144.126 170.487, 134.384 181.305, 131.984 192.317 C 131.217 195.839, 130.958 210.479, 131.177 238 L 131.500 278.500 134.195 283.608 C 141.870 298.155, 163.867 308.641, 194 312.117 C 214.617 314.495, 242.719 309.701, 260.411 300.787 C 268.312 296.806, 276.232 289.156, 279.135 282.702 C 281.248 278.003, 281.508 275.783, 281.818 259.750 L 282.162 242 244.581 242 L 207 242 207 237.500 L 207 233 266.822 233 C 334.315 233, 332.207 233.216, 340.875 225.422 C 348.701 218.387, 357.617 198.769, 361.106 180.912 C 362.904 171.712, 362.675 150.298, 360.662 139.373 C 355.105 109.206, 347.695 94.926, 334.142 88.270 C 328.692 85.594, 327.871 85.489, 309.991 85.175 C 299.812 84.997, 291.149 85.184, 290.741 85.592"/>
    <path fill="#3471a3" stroke="none" fill-rule="evenodd" d="M 185 8.105 C 161.083 10.324, 147.170 14.694, 139.477 22.404 C 132.112 29.785, 131 34.497, 131 58.316 L 131 77 168.500 77 L 206 77 206 81 L 206 85 151.210 85 C 90.982 85, 90.300 85.058, 78.858 91.156 C 67.156 97.394, 59.171 108.923, 55.074 125.500 C 49.813 146.784, 49.296 165.144, 53.392 185.183 C 58.939 212.322, 66.425 224.284, 81.822 230.617 C 87.009 232.750, 88.992 232.955, 104.750 232.976 L 122 233 122 214.710 C 122 201.724, 122.433 194.759, 123.492 190.693 C 127.523 175.216, 137.561 164.067, 153.219 157.676 C 158.297 155.603, 160.302 155.500, 205.500 155 C 251.676 154.489, 252.601 154.439, 258.247 152.169 C 265.257 149.351, 273.673 141.873, 277.189 135.339 C 281.832 126.710, 282.182 122.543, 281.828 80 L 281.500 40.500 278.865 34.880 C 274.217 24.967, 265.495 17.276, 253.912 12.874 C 242.595 8.575, 206.712 6.091, 185 8.105 M 157.241 31.995 C 153.282 34.408, 150.009 39.513, 150.004 43.282 C 149.993 51.191, 156.165 57.385, 164.056 57.385 C 179.018 57.385, 183.218 38.386, 169.800 31.405 C 166.007 29.432, 161.064 29.664, 157.241 31.995 M 227.250 340.092 L 221 342.073 221 398.536 L 221 455 228 455 L 235 455 235 426.743 L 235 398.485 239.443 395.802 C 252.816 387.724, 262.991 388.386, 267.580 397.632 C 269.303 401.103, 269.530 404.244, 269.796 428.250 L 270.092 455 276.546 455 L 283 455 283 427.366 C 283 409.286, 282.599 398.393, 281.839 395.858 C 280.183 390.329, 274.778 384.462, 269.474 382.437 C 262.630 379.823, 250.980 380.885, 242.388 384.905 C 238.751 386.607, 235.601 388, 235.388 388 C 235.174 388, 235 376.750, 235 363 C 235 349.250, 234.662 338.025, 234.250 338.056 C 233.838 338.087, 230.688 339.003, 227.250 340.092 M 185.250 359.122 L 180 361.140 180 371.070 L 180 381 176 381 L 172 381 172 385.500 L 172 390 176 390 L 180 390 180.022 415.750 C 180.041 438.652, 180.249 441.951, 181.896 445.579 C 185.074 452.575, 190.906 455.827, 201.061 456.265 L 206.500 456.500 206.810 452.750 C 207.096 449.295, 206.915 449, 204.511 449 C 201.001 449, 196.348 446.485, 194.780 443.740 C 193.857 442.125, 193.409 434.318, 193.175 415.750 L 192.851 390 199.925 390 L 207 390 207 385.500 L 207 381 200 381 L 193 381 193 369 C 193 360.039, 192.683 357.013, 191.750 357.052 C 191.063 357.081, 188.137 358.012, 185.250 359.122 M 47 379.741 C 36.646 380.456, 26.261 384.041, 19.857 389.113 L 15.981 392.183 16.241 440.696 L 16.500 489.210 22.750 491.559 L 29 493.908 29 472.454 C 29 460.654, 29.171 451, 29.379 451 C 29.588 451, 32.358 452.190, 35.535 453.645 C 48.130 459.411, 62.508 457.600, 70.888 449.191 C 78.503 441.551, 81.943 432.327, 81.961 419.500 C 81.984 402.998, 74.909 387.724, 64.781 382.408 C 61.709 380.795, 52.261 379.379, 47 379.741 M 401.973 380.048 C 394.212 381.206, 387.516 383.595, 380.250 387.799 L 374 391.416 374 423.208 L 374 455 380.486 455 L 386.971 455 387.236 424.250 L 387.500 393.500 392.457 391.044 C 399.335 387.637, 408.990 387.595, 414.417 390.949 C 421.465 395.305, 421.953 397.712, 421.978 428.250 L 422 455 428.500 455 L 435 455 435 424.901 C 435 390.932, 434.843 390.072, 427.677 384.881 C 421.495 380.403, 411.804 378.581, 401.973 380.048 M 100.500 381.913 L 95.500 383.672 95.234 411.487 C 94.979 438.179, 95.055 439.481, 97.114 443.736 C 99.749 449.178, 106.705 454.468, 113.337 456.072 C 119.262 457.504, 129.923 456.597, 138.404 453.937 C 141.757 452.886, 144.904 452.020, 145.398 452.013 C 145.910 452.006, 146.010 455.710, 145.631 460.644 C 144.402 476.625, 139.476 480.982, 118.683 484.475 C 114.998 485.094, 114.890 485.226, 115.551 488.308 C 116.518 492.817, 116.715 493, 120.612 493 C 132.454 493, 147.530 486.263, 152.681 478.670 C 157.936 470.923, 158.365 466.698, 158.436 422 L 158.500 381.500 152 381.500 L 145.500 381.500 145.236 411.620 L 144.971 441.740 138.736 444.547 C 126.607 450.007, 114.319 447.421, 110 438.500 C 108.150 434.679, 108 432.325, 108 407.184 C 108 386.062, 107.721 380.017, 106.750 380.078 C 106.063 380.120, 103.250 380.946, 100.500 381.913 M 316.591 381.517 C 300.929 387.480, 291.891 405.128, 294.659 424.341 C 296.665 438.266, 303.412 448.599, 313.839 453.720 C 318.762 456.138, 320.673 456.499, 328.500 456.492 C 339.721 456.482, 345.821 454.037, 352.534 446.861 C 358.494 440.488, 361.876 432.968, 362.904 423.802 C 364.943 405.622, 358.322 390.870, 344.804 383.475 C 340.166 380.938, 338.307 380.539, 330 380.301 C 323.426 380.113, 319.296 380.487, 316.591 381.517 M 42.270 389.033 C 39.943 389.504, 35.997 390.792, 33.501 391.896 L 28.964 393.904 29.232 417.702 L 29.500 441.500 34.947 444.154 C 41.865 447.524, 46.860 448.316, 52.399 446.921 C 61.076 444.736, 65.682 436.845, 66.653 422.500 C 67.646 407.813, 63.970 394.966, 57.679 391.143 C 53.708 388.730, 47.778 387.918, 42.270 389.033 M 320.500 390.881 C 315.613 393.125, 313.658 395.243, 311.125 401.037 C 305.004 415.039, 309.271 439.180, 319.006 445.622 C 323.131 448.352, 331.070 449.066, 336.086 447.158 C 340.172 445.603, 344.648 440.472, 346.451 435.276 C 348.706 428.778, 349.535 414.846, 348.082 407.875 C 344.918 392.691, 332.807 385.229, 320.500 390.881"/>
</svg>  